<svg height="512pt" fill="#0082A8" viewBox="-18 0 512 512.002" width="512pt" xmlns="http://www.w3.org/2000/svg"><path d="m104.695312 272.582031c.042969-5.523437-3.027343-10.4375-8.007812-12.820312-13.765625-6.589844-24.863281-17.855469-31.246094-31.71875-2.308594-5.015625-7.175781-8.160157-12.699218-8.199219-.035157-.003906-.074219-.003906-.109376-.003906-5.480468 0-10.34375 3.0625-12.710937 8.011718-6.589844 13.765626-17.855469 24.859376-31.71875 31.242188-5.019531 2.3125-8.1601562 7.179688-8.203125 12.703125-.0390625 5.523437 3.027344 10.433594 8.011719 12.820313 13.765625 6.589843 24.859375 17.855468 31.242187 31.71875 2.3125 5.015624 7.175782 8.15625 12.699219 8.199218h.109375c5.480469 0 10.34375-3.058594 12.714844-8.007812 6.589844-13.765625 17.851562-24.863282 31.714844-31.246094 5.019531-2.308594 8.164062-7.175781 8.203124-12.699219zm-52.617187 35.785157c-7.679687-15.695313-20.328125-28.539063-35.910156-36.453126 15.699219-7.675781 28.539062-20.324218 36.453125-35.90625 7.675781 15.699219 20.328125 28.539063 35.90625 36.453126-15.695313 7.675781-28.535156 20.324218-36.449219 35.90625zm422.507813-227.84375c1.914062-5.179688.695312-10.84375-3.183594-14.777344-3.875-3.9375-9.519532-5.238282-14.730469-3.402344-14.390625 5.070312-30.203125 4.953125-44.519531-.335938-5.183594-1.914062-10.84375-.695312-14.777344 3.179688-1.78125 1.753906-3.015625 3.867188-3.671875 6.136719-31.105469-43.753907-84.855469-71.324219-143.773437-71.324219-40.675782 0-80.105469 13.25-111.03125 37.304688-3.269532 2.542968-3.855469 7.257812-1.3125 10.527343 2.542968 3.269531 7.253906 3.855469 10.523437 1.3125 28.304687-22.019531 64.464844-34.144531 101.820313-34.144531 66.214843 0 125.167968 37.761719 147.324218 94.128906-.445312 3.941406-1.25 7.847656-2.410156 11.671875-21.277344-8.789062-43.265625-25.394531-56.636719-43.183593-1.863281-2.480469-5.066406-3.554688-8.046875-2.707032-2.984375.851563-5.140625 3.453125-5.417968 6.542969-.644532 7.152344-2.414063 13.5-5.402344 19.324219-19.957032-5.835938-56.480469-30.109375-62.519532-44.167969-1.183593-2.753906-3.894531-4.539063-6.890624-4.539063-3 0-5.707032 1.785157-6.890626 4.539063-6.039062 14.058594-42.5625 38.332031-62.519531 44.167969-2.988281-5.824219-4.757812-12.171875-5.402343-19.324219-.28125-3.089844-2.433594-5.691406-5.417969-6.539063-2.984375-.851562-6.1875.226563-8.050781 2.707032-14.90625 19.832031-41.144532 38.34375-63.8125 45.859375.070312-.253907.132812-.507813.203124-.757813.128907-.367187.238282-.738281.3125-1.125 4.972657-17.726562 13.734376-34.441406 26.046876-49.425781 2.628906-3.199219 2.167968-7.925781-1.03125-10.554687-3.203126-2.628907-7.929688-2.167969-10.558594 1.03125-12.597656 15.335937-21.859375 32.320312-27.554688 50.332031-25.03125 2.5625-44.546875 21.191406-44.546875 43.667969 0 22.675781 19.78125 41.390624 45.085938 43.730468 8.078125 22.835938 22.816406 42.585938 43.75 58.3125 3.714843 2.792969 7.617187 5.429688 11.671875 7.917969-34.601563 32.1875-46.882813 77.746094-53.675782 114.664063-1.6875 9.179687.296876 18.464843 5.59375 26.148437 5.292969 7.679687 13.261719 12.84375 22.441407 14.53125 2.097656.386719 4.234375.582031 6.351562.582031 16.839844 0 31.273438-12.035156 34.324219-28.617187.953125-5.167969 1.914062-9.914063 2.90625-14.335938 3.355469 5.320313 7.21875 10.296875 11.5625 14.898438v82.585937c0 19.261719 15.667969 34.933594 34.933594 34.933594 19.261718 0 34.929687-15.671875 34.929687-34.933594v-50.667968c3.082031.230468 6.199219.355468 9.347657.355468 3.144531 0 6.261718-.125 9.34375-.355468v50.671874c0 19.261719 15.671874 34.933594 34.933593 34.933594s34.933594-15.671875 34.933594-34.933594v-21.460937c0-4.140625-3.355469-7.5-7.5-7.5s-7.5 3.359375-7.5 7.5v.4375h-39.863281v-31.71875c14.660156-2.992187 28.195312-8.71875 39.863281-16.886719v14.515625c0 4.140625 3.355469 7.5 7.5 7.5s7.5-3.359375 7.5-7.5v-27.476562c15.933594-16.878907 25.320313-38.832031 27.515625-64.230469 6.746094 1.125 13.3125 1.707031 19.609375 1.707031 9.574219 0 18.882813-1.304687 27.664063-3.882812 26.210937-7.691407 46.871093-26.292969 61.40625-55.273438 8.632812-17.21875 1.648437-38.253906-15.566407-46.886719-8.34375-4.183593-17.8125-4.867187-26.667969-1.925781-8.855468 2.9375-16.035156 9.152344-20.21875 17.492188-2.460937 4.910156-5 9.375-8.246093 12.898437-.261719.234375-.507813.5-.742188.777344-5.726562 5.757812-13.6875 8.628906-27.070312 6.070312 1.179687-.832031 2.347656-1.671874 3.492187-2.535156 20.933594-15.726562 35.671875-35.476562 43.746094-58.308594 25.308594-2.34375 45.089844-21.058593 45.089844-43.730468 0-4.640625-.835938-9.175782-2.417969-13.480469 1.410156.445313 2.847656.679687 4.269531.679687 3.621094 0 7.140625-1.410156 9.84375-4.074218 3.933594-3.875 5.238282-9.519532 3.402344-14.730469-5.074219-14.394531-4.953125-30.207031.335938-44.523437zm-418.878907 76.125c0-13.136719 10.796875-24.28125 25.515625-27.808594-1.769531 9.09375-2.675781 18.386718-2.675781 27.808594 0 9.644531.957031 18.9375 2.820313 27.847656-14.800782-3.480469-25.660157-14.640625-25.660157-27.847656zm85.792969 234.554687c-1.742188 9.460937-9.972656 16.328125-19.570312 16.328125-1.210938 0-2.433594-.109375-3.640626-.332031-5.234374-.964844-9.785156-3.910157-12.804687-8.292969s-4.152344-9.683594-3.191406-14.917969c.679687-3.703125 1.421875-7.5 2.238281-11.359375l39.183594 7.375c-.753906 3.535156-1.488282 7.25-2.214844 11.199219zm5.699219-25.804687-39.25-7.386719c6.933593-26.785157 18.347656-55.058594 39.855469-76.882813-3.386719 11.988282-5.101563 24.496094-5.101563 37.351563 0 14.425781 2.183594 27.894531 6.429687 40.144531-.664062 2.191406-1.308593 4.441406-1.933593 6.773438zm78.386719 111.667968c0 10.992188-8.941407 19.933594-19.933594 19.933594-10.992188 0-19.933594-8.941406-19.933594-19.933594v-6.019531h39.867188zm0-21.019531h-39.867188v-48.605469c11.667969 8.167969 25.207031 13.890625 39.867188 16.886719zm88.554687 15v6.019531c0 10.992188-8.941406 19.933594-19.933594 19.933594-10.992187 0-19.933593-8.941406-19.933593-19.933594v-6.019531zm1.117187-83.863281c-16.542968 15.84375-39.746093 24.566406-65.328124 24.566406-25.585938 0-48.785157-8.722656-65.332032-24.566406-3.652344-3.496094-6.925781-7.308594-9.851562-11.378906h150.367187c-2.925781 4.070312-6.199219 7.882812-9.855469 11.378906zm18.464844-26.378906h-167.585937c-5.554688-12.480469-8.433594-26.730469-8.433594-42.324219 0-13.933594 2.257813-27.382813 6.695313-40.09375 25.148437 10.484375 54.417968 16.074219 85.53125 16.074219 31.113281 0 60.382812-5.589844 85.53125-16.074219 4.441406 12.710937 6.695312 26.160156 6.695312 40.09375 0 15.59375-2.875 29.84375-8.433594 42.324219zm82.570313-112.601563c2.386719-4.757813 6.484375-8.304687 11.535156-9.980469 5.050781-1.679687 10.457031-1.289062 15.214844 1.097656 9.824219 4.925782 13.8125 16.929688 8.886719 26.753907-2.960938 5.902343-6.207032 11.285156-9.710938 16.175781l-31.902344-23.679688c2.316406-3.390624 4.257813-6.9375 5.976563-10.367187zm-22.425781 25.132813c2.242187-1.066407 4.277343-2.324219 6.152343-3.726563l32.5625 24.167969c-9.484375 9.601562-20.46875 16.261718-32.878906 19.902344-7.40625 2.175781-15.292969 3.277343-23.4375 3.277343-6.089844 0-12.511719-.628906-19.152344-1.851562-.347656-14.953125-3.035156-29.410157-8-43.105469.0625-.03125.121094-.0625.179688-.09375 18.496093 6.402344 33.105469 6.871094 44.574219 1.429688zm-32.5625-26.636719c-28.117188 21.128906-67.671876 32.761719-111.375 32.761719-43.703126 0-83.257813-11.632813-111.378907-32.761719-29.441406-22.121094-45.003906-53.257813-45.003906-90.050781 0-5.605469.359375-11.164063 1.066406-16.65625 22.910157-5.496094 49.742188-21.824219 68.761719-41.421876 1.367188 4.128907 3.136719 8.066407 5.324219 11.859376 2.597656 4.503906 7.71875 6.757812 12.746093 5.605468 18.316407-4.199218 52.613282-24.378906 68.484376-43.003906 15.871093 18.625 50.167968 38.808594 68.484374 43.003906 5.027344 1.152344 10.144532-1.101562 12.746094-5.605468 2.1875-3.789063 3.957032-7.726563 5.324219-11.855469 16.085937 16.597656 37.898437 31.019531 58.484375 38.335937.527344.820313 1.140625 1.59375 1.847656 2.308594 2.417969 2.457031 5.527344 3.886719 8.785156 4.167969.453126 4.414062.707032 8.847656.707032 13.261719.003906 36.792968-15.558594 67.929687-45.003906 90.050781zm57.1875-62.203125c1.863281-8.910156 2.820312-18.203125 2.820312-27.847656 0-5.472657-.324219-10.980469-.949219-16.445313 5.398438-1.085937 10.90625-1.496094 16.386719-1.210937 4.789062 5.066406 7.402344 11.25 7.402344 17.65625 0 13.207031-10.859375 24.367187-25.660156 27.847656zm41.007812-56.238282c-5.9375-2.035156-12.066406-3.34375-18.253906-3.949218-.3125-.050782-.625-.085938-.9375-.097656-2.316406-.199219-4.644532-.308594-6.96875-.308594-7.796875 0-15.597656 1.144531-23.132813 3.402344-.273437.066406-.539062.144531-.796875.242187-.355468.109375-.71875.210937-1.074218.324219 2.164062-6.3125 3.515624-12.84375 4.066406-19.433594.003906-.035156.007812-.070312.007812-.105469.871094-10.625-.351562-21.390625-3.691406-31.625 16.53125 5.671875 34.554688 5.804688 51.164062.382813-5.667968 16.53125-5.804687 34.554687-.382812 51.167968zm-104.734375-4.34375c-17.316406-3.367187-34.878906-3.367187-52.195313 0-4.5625.890626-8.5 3.125-11.507812 6.210938-11.765625-3.132812-28.359375-3.863281-41.132812-3.863281-12.773438 0-29.367188.730469-41.132813 3.863281-3.007813-3.085938-6.945313-5.320312-11.507813-6.210938-17.316406-3.367187-34.878906-3.367187-52.195312 0-11.605469 2.261719-19.273438 13.179688-17.453125 24.863282l2.71875 17.449218c1.347656 8.675782 8.0625 15.554688 16.703125 17.121094 8.003906 1.449219 16.066406 2.175782 24.128906 2.175782s16.125-.726563 24.132813-2.175782c8.636719-1.566406 15.351562-8.445312 16.703125-17.121094l2.714844-17.449218c.25-1.597656.304687-3.179688.214843-4.730469 8.113281-1.789063 20.339844-2.785156 34.972657-2.785156 14.628906 0 26.859374.996093 34.972656 2.785156-.09375 1.550781-.035156 3.132813.210937 4.730469l2.71875 17.449218c1.351563 8.675782 8.0625 15.554688 16.703125 17.121094 8.007813 1.449219 16.070313 2.175782 24.132813 2.175782s16.125-.726563 24.128906-2.175782c8.640625-1.566406 15.355469-8.445312 16.703125-17.121094l2.71875-17.449218c1.820312-11.683594-5.847656-22.605469-17.453125-24.863282zm-154.84375 22.554688-2.714844 17.449219c-.371093 2.367187-2.199219 4.242187-4.554687 4.667969-14.242188 2.578124-28.679688 2.578124-42.917969 0-2.355469-.425782-4.1875-2.300782-4.554687-4.667969l-2.71875-17.449219c-.570313-3.679688 1.84375-7.117188 5.5-7.828125 7.707031-1.5 15.46875-2.25 23.230468-2.25 7.765625 0 15.527344.75 23.234375 2.25 2.082031.402344 3.757813 1.695313 4.710938 3.40625.085937.1875.175781.375.277343.550781.519532 1.175782.722657 2.507813.507813 3.871094zm157.476563 0-2.71875 17.449219c-.367188 2.367187-2.199219 4.242187-4.554688 4.671875-14.238281 2.578125-28.679688 2.574218-42.914062 0-2.359376-.429688-4.1875-2.304688-4.554688-4.671875l-2.71875-17.449219c-.574219-3.679688 1.839844-7.117188 5.496094-7.828125 15.414062-3 31.050781-3 46.464844 0 3.65625.710937 6.070312 4.148437 5.5 7.828125zm-81.78125 9.105469c-3.125-2.722657-7.863282-2.394531-10.582032.726562-3.8125 4.375-9.320312 6.882813-15.105468 6.882813-5.785157 0-11.292969-2.507813-15.105469-6.882813-2.722657-3.125-7.457031-3.449219-10.582031-.726562-3.121094 2.722656-3.445313 7.457031-.726563 10.582031 6.664063 7.644531 16.292969 12.027344 26.414063 12.027344 10.125 0 19.75-4.382813 26.414062-12.03125 2.71875-3.121094 2.394531-7.855469-.726562-10.578125zm0 0"/></svg>